<?xml version="1.0" encoding="UTF-8" standalone="no"?>
<svg
   xmlns:dc="http://purl.org/dc/elements/1.1/"
   xmlns:cc="http://creativecommons.org/ns#"
   xmlns:rdf="http://www.w3.org/1999/02/22-rdf-syntax-ns#"
   xmlns:svg="http://www.w3.org/2000/svg"
   xmlns="http://www.w3.org/2000/svg"
   xmlns:sodipodi="http://sodipodi.sourceforge.net/DTD/sodipodi-0.dtd"
   xmlns:inkscape="http://www.inkscape.org/namespaces/inkscape"
   width="1000.0001"
   height="573.64368"
   viewBox="0 0 1000.0001 573.64368"
   version="1.1"
   id="svg4"
   sodipodi:docname="00.svg"
   inkscape:version="0.92.4 (5da689c313, 2019-01-14)">
  <metadata
     id="metadata17">
    <rdf:RDF>
      <cc:Work
         rdf:about="">
        <dc:format>image/svg+xml</dc:format>
        <dc:type
           rdf:resource="http://purl.org/dc/dcmitype/StillImage" />
        <dc:title></dc:title>
      </cc:Work>
    </rdf:RDF>
  </metadata>
  <defs
     id="defs8" />
  <sodipodi:namedview
     id="namedview6"
     pagecolor="#ffffff"
     bordercolor="#666666"
     borderopacity="1.0"
     inkscape:pageshadow="2"
     inkscape:pageopacity="0.0"
     inkscape:pagecheckerboard="0"
     showgrid="false"
     fit-margin-top="0"
     fit-margin-left="0"
     fit-margin-right="0"
     fit-margin-bottom="0"
     inkscape:zoom="0.19662921"
     inkscape:cx="1632.4133"
     inkscape:cy="-432.80355"
     inkscape:window-width="1920"
     inkscape:window-height="1017"
     inkscape:window-x="1912"
     inkscape:window-y="-8"
     inkscape:window-maximized="1"
     inkscape:current-layer="svg4">
    <inkscape:grid
       type="xygrid"
       id="grid30"
       originx="-23.509057"
       originy="-118.31425" />
  </sodipodi:namedview>
  <path
     d="m 416.9417,0 c -3.16137,1.435933 -6.28801,2.918187 -9.42621,4.458341 -42.08211,20.462046 -80.71334,48.103758 -114.83991,82.079787 -35.79411,35.666722 -64.50118,74.749582 -85.26432,116.229512 -20.10306,40.14823 -32.28532,81.38499 -36.1994,122.57542 -7.93237,83.42307 19.03769,160.56974 75.86127,217.13856 11.8117,11.76538 24.81616,22.18748 38.93231,31.15048 H 185.44381 c -22.55805,-25.40675 -40.31035,-54.09067 -52.87477,-85.53066 -14.54461,-36.34995 -21.90956,-75.64125 -21.90956,-116.84326 0,-53.58115 12.28649,-107.99607 36.47734,-161.7046 C 172.27723,153.62168 209.15986,101.25644 256.71935,53.905391 276.61397,34.068671 297.68977,16.096347 319.73829,0 Z M 18.122864,485.57697 c 4.041457,15.65631 9.078804,30.95363 15.088878,45.91513 5.824793,14.50987 12.506514,28.56812 20.068322,42.15158 H 0 Z M 288.44884,0 C 272.82728,12.541254 257.72682,26.032077 243.22853,40.495628 194.03624,89.502635 155.83348,143.74385 129.72034,201.76017 104.42939,257.93526 91.587062,315.00203 91.587062,371.26976 c 0,43.61068 7.82814,85.29905 23.252838,123.83765 11.36008,28.39441 26.66898,54.69283 45.71826,78.53627 H 75.282265 C 65.902379,557.91789 57.761565,541.50888 50.917723,524.45139 39.754501,496.6823 32.134792,467.5236 28.047015,437.27635 L 85.854902,156.20404 C 114.11036,104.00092 151.31724,54.820219 196.75757,9.5651675 200.01157,6.334318 203.27716,3.161369 206.56592,0 Z M 580.7307,110.26576 c 24.22558,6.07956 45.753,18.00706 63.04209,35.26142 66.37717,66.1224 53.81276,178.26415 -29.19344,260.89977 -31.97267,31.86846 -69.71224,53.99804 -107.94975,64.11905 l 7.24916,-35.22669 c 29.69138,-8.88193 58.00474,-25.91626 81.73238,-49.53968 37.77431,-37.58902 58.56059,-81.52395 58.56059,-123.64079 0,-33.66336 -12.77286,-64.15378 -36.9637,-88.21724 -12.27491,-12.21701 -27.24799,-21.4232 -43.99282,-27.17851 z m -11.3485,55.14447 c 13.00446,4.84048 24.57299,12.19384 34.35817,21.92113 20.49679,20.45047 31.34734,46.28568 31.34734,74.80748 0,37.0795 -18.80608,76.1971 -52.9674,110.21945 -19.17664,19.10717 -41.22517,32.99171 -63.80638,41.37571 l 6.16062,-29.99247 c 16.11951,-6.90174 31.40525,-17.08066 44.27075,-29.89983 21.21474,-21.12212 34.0455,-47.42053 36.18782,-74.00846 2.14232,-26.79636 -6.53117,-51.38092 -24.51508,-69.29534 -5.18789,-5.17632 -11.11691,-9.53044 -17.60176,-13.07394 z m -10.63053,51.7978 c 2.91818,2.00336 5.65109,4.26149 8.18713,6.77436 13.94244,13.89613 20.68206,33.18858 18.99137,54.3107 -1.77176,22.118 -12.65706,44.16652 -30.66412,62.1041 -7.81657,7.79342 -16.60587,14.42881 -25.93944,19.75566 z M 522.5291,0 516.32216,30.143014 c -66.52771,9.646228 -131.35314,43.182213 -183.50994,95.072666 -2.69816,2.69816 -5.32684,5.4079 -7.90921,8.10607 h -49.16913 c 9.46095,-11.42956 19.59355,-22.5812 30.44411,-33.37386 C 354.6523,51.670431 411.32534,18.088125 468.91321,0 Z M 179.42215,0 C 148.12113,31.671589 120.68786,65.138094 97.377102,100.20265 L 117.98969,0 Z m 90.41747,140.61722 -15.22785,74.59904 h 11.1748 c -21.37687,41.03989 -32.65589,84.30317 -32.65589,127.17271 0,2.73291 0.0694,5.4195 0.16212,8.12924 h -6.70488 l -17.48596,87.02449 h 45.31296 c 9.8315,20.33466 22.95176,38.90915 39.07126,54.93602 31.33578,31.18522 70.80077,50.76718 115.62736,57.64577 l -4.92155,23.50761 h -77.8183 C 301.44172,562.71206 279.3353,547.76214 260.56395,529.08343 207.81657,476.54449 182.81512,404.80574 190.18006,327.12639 196.2712,263.08841 224.1561,198.35562 269.83962,140.61722 Z M 691.62179,510.3005 678.55943,573.64368 H 597.9619 c 33.6981,-16.5943 65.45076,-37.92485 93.65989,-63.34318 z m 22.69701,-110.19628 -15.89949,77.1235 c -1.96861,2.02652 -3.9604,4.09935 -5.99849,6.09114 -40.58827,40.4493 -90.2785,71.40292 -142.91008,90.32482 h -64.0843 l 5.04892,-24.59614 c 64.06114,-10.7695 128.04122,-43.92335 177.52301,-93.1967 17.54386,-17.48596 33.03805,-36.18782 46.32043,-55.74662 z M 332.15216,437.5427 c 2.72132,3.17295 5.53529,6.24168 8.52296,9.21777 22.81281,22.70858 50.25765,37.86694 80.66702,44.74552 l -8.34927,39.95136 c -41.21359,-6.12587 -77.413,-23.92449 -106.02744,-52.41156 -12.36755,-12.33281 -22.78964,-26.28684 -31.11574,-41.50309 z M 593.21405,49.597592 c 37.53112,6.56592 71.72718,23.021249 98.73199,49.910254 36.18782,36.037294 55.67714,80.365924 57.46048,129.894044 0.0927,2.47814 0.12738,5.0026 0.12738,7.51548 0,10.61896 -0.77586,21.4811 -2.39709,32.51694 -8.91667,60.94609 -41.80417,122.37855 -92.64084,172.98362 -44.83817,44.65288 -102.17127,75.30542 -159.87494,86.61918 l 7.79342,-37.93643 C 547.04417,481.32707 591.2107,456.56881 628.0586,419.88304 718.75398,329.56979 731.3184,205.84795 657.29836,132.10584 637.24162,112.1649 612.43703,98.500376 584.57529,91.633375 Z m -160.55816,387.933528 -0.0463,0.13896 -7.36494,35.23826 c -24.86249,-5.73215 -47.45528,-17.68282 -66.66667,-35.36564 h 74.07793 z M 946.33779,236.92895 918.95084,372.25407 H 874.9696 c 16.38585,-39.36078 27.00481,-79.83325 31.28945,-120.28256 0.50951,-5.01419 0.94956,-10.03995 1.2738,-15.05414 h 38.79336 z m -134.90823,0 c -0.3474,7.5155 -0.94957,15.05414 -1.89913,22.67385 -4.64363,37.92484 -16.69852,76.00023 -35.31933,112.63969 h -42.74216 c 17.77546,-32.30849 29.61033,-66.22663 34.55503,-100.05211 1.74859,-11.92752 2.57078,-23.6929 2.57078,-35.26143 z m 76.98454,0 c -0.27793,4.36571 -0.64849,8.68508 -1.13485,13.06236 -4.34254,41.10938 -15.55208,82.28823 -33.01488,122.25118 h -58.82694 c 17.2312,-35.96781 28.4639,-73.20943 33.04963,-110.3584 1.01905,-8.37242 1.6907,-16.67536 2.01494,-24.95514 z M 328.24966,215.22783 c -21.85165,36.3847 -33.76758,76.3708 -33.76758,115.46524 0,6.71646 0.35899,13.3287 1.06537,19.84829 h -43.17064 c -0.0927,-2.69816 -0.16212,-5.4079 -0.16212,-8.11764 0,-42.86956 12.20544,-86.27179 35.22669,-127.19589 z m 117.13277,0 c -4.06461,3.23086 -7.95554,6.71647 -11.70749,10.44526 -25.38358,25.30253 -39.37236,55.90875 -39.37236,86.19072 0,13.82665 3.08032,26.98166 8.87037,38.67755 h -33.94129 c -2.62869,-9.53042 -3.98356,-19.60511 -3.98356,-30.17775 0,-35.96781 16.30479,-73.85791 44.95397,-105.13578 z m -60.17022,0 c -10.0747,12.87708 -18.37763,26.47213 -24.73511,40.76198 -9.48411,21.26107 -14.30144,42.92745 -14.30144,64.3738 0,10.3642 1.18118,20.48521 3.45088,30.17775 h -34.9256 c -0.7527,-6.46169 -1.15801,-13.08551 -1.15801,-19.84829 0,-39.1755 13.2129,-79.47427 37.21846,-115.46524 z M 659.12802,0 c 30.25882,11.105321 57.81946,28.162817 81.1418,51.380928 24.06346,24.005559 42.32528,51.508312 54.35701,81.929242 h -25.4415 l -8.98615,43.72648 -0.85693,-2.84871 C 749.26755,141.30045 731.12153,111.66695 705.42527,86.063344 682.75143,63.482138 655.20236,47.084709 623.61184,37.3111 614.92675,34.659256 606.09113,32.528516 597.05865,30.942042 L 603.42771,0 Z m 148.68855,0 c 35.3888,37.924846 59.75334,83.307278 72.08615,133.31017 H 814.99623 C 802.096,97.643449 781.50657,65.624458 753.74906,37.959585 738.8223,23.090731 722.11221,10.410515 703.80406,0 Z M 512.24596,50.072376 504.0704,89.861618 C 468.98268,96.184356 434.64768,111.13427 403.82143,133.31017 H 351.79202 C 399.52521,87.84668 456.49933,59.695444 512.24596,50.072376 Z m -12.32123,59.961784 -4.771,23.27601 h -56.00139 c 19.45457,-10.83898 39.95136,-18.69029 60.77239,-23.27601 z M 923.17758,0 c 8.88194,15.3089 16.64061,31.289445 23.25285,47.941637 10.78108,27.178507 18.37763,55.769793 22.65068,85.368533 h -69.5501 C 888.1246,84.025245 865.75184,38.770193 833.2349,0 Z M 1000,0 980.78864,93.497771 C 976.49234,75.513867 970.93393,57.993168 964.14799,40.947253 958.56638,26.865845 952.18574,13.201321 945.04082,0 Z M 472.15563,219.90619 445.71826,350.51821 h -20.42731 c -7.82815,-10.90846 -11.93909,-24.08662 -11.93909,-38.66597 0,-25.23306 12.00857,-51.05668 33.81391,-72.75781 7.64286,-7.64286 16.10793,-14.08141 24.98986,-19.18824 z"
     id="path2"
     style="opacity:0.9;fill:#0074bc;fill-opacity:1;fill-rule:evenodd;stroke-width:11.58013821"
     inkscape:connector-curvature="0"
     sodipodi:nodetypes="cccccccccsccccccccccccscccccccccccccccscccccscccccccccccccccccccccccccccccscccccccccccccccccccccccccccccccccsccccccccccccccccccccccccccccccccccccsccsccccsccsccccsccsccccccccccccccccccccccccccccccccccccccccccscc" />
</svg>
